<svg width="18" height="18" viewBox="0 0 18 18" fill="none" xmlns="http://www.w3.org/2000/svg">
<rect width="18" height="18" fill="#303030"/>
<path d="M-13469 -672C-13469 -840.016 -13469 -924.024 -13436.3 -988.197C-13407.5 -1044.65 -13361.6 -1090.54 -13305.2 -1119.3C-13241 -1152 -13157 -1152 -12989 -1152H4354C4522.02 -1152 4606.02 -1152 4670.2 -1119.3C4726.65 -1090.54 4772.54 -1044.65 4801.3 -988.197C4834 -924.024 4834 -840.016 4834 -672V488C4834 656.016 4834 740.024 4801.3 804.197C4772.54 860.646 4726.65 906.54 4670.2 935.302C4606.02 968 4522.02 968 4354 968H-12989C-13157 968 -13241 968 -13305.2 935.302C-13361.6 906.54 -13407.5 860.646 -13436.3 804.197C-13469 740.024 -13469 656.016 -13469 488V-672Z" fill="#1B1B1B"/>
<path d="M-13305.2 935.302L-13309.7 944.212L-13305.2 935.302ZM-13436.3 804.197L-13427.4 799.657L-13436.3 804.197ZM4801.3 804.197L4810.21 808.737L4801.3 804.197ZM4670.2 935.302L4665.66 926.392L4670.2 935.302ZM4670.2 -1119.3L4665.66 -1110.39L4670.2 -1119.3ZM4801.3 -988.197L4792.39 -983.657L4801.3 -988.197ZM-12989 -1142H4354V-1162H-12989V-1142ZM4824 -672V488H4844V-672H4824ZM4354 958H-12989V978H4354V958ZM-13459 488V-672H-13479V488H-13459ZM-12989 958C-13073.2 958 -13135.7 957.992 -13185.2 953.946C-13234.6 949.909 -13270.2 941.903 -13300.7 926.392L-13309.7 944.212C-13276 961.399 -13237.5 969.742 -13186.9 973.88C-13136.3 978.008 -13072.8 978 -12989 978V958ZM-13479 488C-13479 571.843 -13479 635.326 -13474.9 685.854C-13470.7 736.498 -13462.4 775.006 -13445.2 808.737L-13427.4 799.657C-13442.9 769.215 -13450.9 733.632 -13454.9 684.225C-13459 634.701 -13459 572.173 -13459 488H-13479ZM-13300.7 926.392C-13355.2 898.589 -13399.6 854.224 -13427.4 799.657L-13445.2 808.737C-13415.5 867.067 -13368.1 914.491 -13309.7 944.212L-13300.7 926.392ZM4824 488C4824 572.173 4823.99 634.701 4819.95 684.225C4815.91 733.632 4807.9 769.215 4792.39 799.657L4810.21 808.737C4827.4 775.006 4835.74 736.498 4839.88 685.854C4844.01 635.326 4844 571.843 4844 488H4824ZM4354 978C4437.84 978 4501.33 978.008 4551.85 973.88C4602.5 969.742 4641.01 961.399 4674.74 944.212L4665.66 926.392C4635.21 941.903 4599.63 949.909 4550.22 953.946C4500.7 957.992 4438.17 958 4354 958V978ZM4792.39 799.657C4764.59 854.224 4720.22 898.589 4665.66 926.392L4674.74 944.212C4733.07 914.491 4780.49 867.067 4810.21 808.737L4792.39 799.657ZM4354 -1142C4438.17 -1142 4500.7 -1141.99 4550.22 -1137.95C4599.63 -1133.91 4635.21 -1125.9 4665.66 -1110.39L4674.74 -1128.21C4641.01 -1145.4 4602.5 -1153.74 4551.85 -1157.88C4501.33 -1162.01 4437.84 -1162 4354 -1162V-1142ZM4844 -672C4844 -755.843 4844.01 -819.326 4839.88 -869.854C4835.74 -920.498 4827.4 -959.006 4810.21 -992.737L4792.39 -983.657C4807.9 -953.215 4815.91 -917.632 4819.95 -868.225C4823.99 -818.701 4824 -756.173 4824 -672H4844ZM4665.66 -1110.39C4720.22 -1082.59 4764.59 -1038.22 4792.39 -983.657L4810.21 -992.737C4780.49 -1051.07 4733.07 -1098.49 4674.74 -1128.21L4665.66 -1110.39ZM-12989 -1162C-13072.8 -1162 -13136.3 -1162.01 -13186.9 -1157.88C-13237.5 -1153.74 -13276 -1145.4 -13309.7 -1128.21L-13300.7 -1110.39C-13270.2 -1125.9 -13234.6 -1133.91 -13185.2 -1137.95C-13135.7 -1141.99 -13073.2 -1142 -12989 -1142V-1162ZM-13459 -672C-13459 -756.173 -13459 -818.701 -13454.9 -868.225C-13450.9 -917.632 -13442.9 -953.215 -13427.4 -983.657L-13445.2 -992.737C-13462.4 -959.006 -13470.7 -920.498 -13474.9 -869.854C-13479 -819.326 -13479 -755.843 -13479 -672H-13459ZM-13309.7 -1128.21C-13368.1 -1098.49 -13415.5 -1051.07 -13445.2 -992.737L-13427.4 -983.657C-13399.6 -1038.22 -13355.2 -1082.59 -13300.7 -1110.39L-13309.7 -1128.21Z" fill="white" fill-opacity="0.05"/>
<rect width="1440" height="900" transform="translate(-561 -428)" fill="#FAFAFB"/>
<path d="M-561 -428H879V472H-561V-428Z" fill="#FAFAFB"/>
<g filter="url(#filter0_d_0_1)">
<g clip-path="url(#clip0_0_1)">
<rect x="-262.837" y="-401.334" width="1123" height="840" rx="16" fill="white"/>
<path d="M-118.5 -202C-118.5 -210.56 -111.56 -217.5 -103 -217.5H701C709.56 -217.5 716.5 -210.56 716.5 -202V32C716.5 40.5604 709.56 47.5 701 47.5H-103C-111.56 47.5 -118.5 40.5604 -118.5 32V-202Z" fill="#F7F8FA"/>
<path d="M-118.5 -202C-118.5 -210.56 -111.56 -217.5 -103 -217.5H701C709.56 -217.5 716.5 -210.56 716.5 -202V32C716.5 40.5604 709.56 47.5 701 47.5H-103C-111.56 47.5 -118.5 40.5604 -118.5 32V-202Z" stroke="#F0F2F5"/>
<path d="M3.19714 12.4293C2.17731 12.4293 1.35059 11.6026 1.35059 10.5828V3.46035C1.35059 2.29484 2.29542 1.35 3.46093 1.35H10.5833C11.6032 1.35 12.4299 2.17673 12.4299 3.19655" stroke="#44924C" stroke-width="1.1375" stroke-linecap="round" stroke-linejoin="round"/>
<path d="M14.5403 5.5707H7.68163C6.51612 5.5707 5.57129 6.51554 5.57129 7.68105V14.5397C5.57129 15.7052 6.51612 16.65 7.68163 16.65H14.5403C15.7058 16.65 16.6506 15.7052 16.6506 14.5397V7.68105C16.6506 6.51554 15.7058 5.5707 14.5403 5.5707Z" stroke="#44924C" stroke-width="1.1375" stroke-linecap="round" stroke-linejoin="round"/>
</g>
<rect x="-262.337" y="-400.834" width="1122" height="839" rx="15.5" stroke="#F0F2F5"/>
</g>
<defs>
<filter id="filter0_d_0_1" x="-265.837" y="-403.334" width="1129" height="846" filterUnits="userSpaceOnUse" color-interpolation-filters="sRGB">
<feFlood flood-opacity="0" result="BackgroundImageFix"/>
<feColorMatrix in="SourceAlpha" type="matrix" values="0 0 0 0 0 0 0 0 0 0 0 0 0 0 0 0 0 0 127 0" result="hardAlpha"/>
<feOffset dy="1"/>
<feGaussianBlur stdDeviation="1.5"/>
<feComposite in2="hardAlpha" operator="out"/>
<feColorMatrix type="matrix" values="0 0 0 0 0.0980392 0 0 0 0 0.129412 0 0 0 0 0.239216 0 0 0 0.1 0"/>
<feBlend mode="normal" in2="BackgroundImageFix" result="effect1_dropShadow_0_1"/>
<feBlend mode="normal" in="SourceGraphic" in2="effect1_dropShadow_0_1" result="shape"/>
</filter>
<clipPath id="clip0_0_1">
<rect x="-262.837" y="-401.334" width="1123" height="840" rx="16" fill="white"/>
</clipPath>
</defs>
</svg>
