<svg width="21" height="21" viewBox="0 0 21 21" fill="none" xmlns="http://www.w3.org/2000/svg">
<path d="M6.48462 15.6823L10.4846 11.6823L14.4846 15.6823L15.2713 14.8956L11.2713 10.8956L15.2713 6.89563L14.4846 6.10896L10.4846 10.109L6.48462 6.10896L5.69795 6.89563L9.69795 10.8956L5.69795 14.8956L6.48462 15.6823ZM10.488 20.8956C9.10573 20.8956 7.80573 20.6334 6.58795 20.109C5.37092 19.5838 4.31203 18.8712 3.41129 17.9712C2.51054 17.0712 1.79758 16.0134 1.2724 14.7979C0.747212 13.5823 0.484619 12.2827 0.484619 10.899C0.484619 9.51526 0.747212 8.21526 1.2724 6.99896C1.79684 5.78193 2.50832 4.72304 3.40684 3.8223C4.30536 2.92156 5.36351 2.20859 6.58129 1.68341C7.79906 1.15822 9.09906 0.89563 10.4813 0.89563C11.8635 0.89563 13.1635 1.15822 14.3813 1.68341C15.5983 2.20785 16.6572 2.9197 17.558 3.81896C18.4587 4.71822 19.1717 5.77637 19.6968 6.99341C20.222 8.21044 20.4846 9.51007 20.4846 10.8923C20.4846 12.2745 20.2224 13.5745 19.698 14.7923C19.1735 16.0101 18.4609 17.069 17.5602 17.969C16.6594 18.869 15.6017 19.5819 14.3868 20.1079C13.172 20.6338 11.8724 20.8964 10.488 20.8956ZM10.4846 19.7845C12.9661 19.7845 15.068 18.9234 16.7902 17.2012C18.5124 15.479 19.3735 13.3771 19.3735 10.8956C19.3735 8.41415 18.5124 6.3123 16.7902 4.59007C15.068 2.86785 12.9661 2.00674 10.4846 2.00674C8.00314 2.00674 5.90129 2.86785 4.17906 4.59007C2.45684 6.3123 1.59573 8.41415 1.59573 10.8956C1.59573 13.3771 2.45684 15.479 4.17906 17.2012C5.90129 18.9234 8.00314 19.7845 10.4846 19.7845Z" fill="white"/>
</svg>
