<svg width="79" height="79" viewBox="0 0 79 79" fill="none" xmlns="http://www.w3.org/2000/svg">
<circle cx="39.7407" cy="39.7426" r="39" fill="#DEFBEA"/>
<path d="M53.9226 39.1516V34.9016C53.9226 33.7745 53.4661 32.6935 52.6534 31.8964C51.8407 31.0994 50.7385 30.6516 49.5893 30.6516H32.2559C31.1067 30.6516 30.0045 31.0994 29.1918 31.8964C28.3792 32.6935 27.9226 33.7745 27.9226 34.9016V51.9016C27.9226 53.0288 28.3792 54.1098 29.1918 54.9068C30.0045 55.7039 31.1067 56.1516 32.2559 56.1516H36.5893" stroke="#44924C" stroke-width="3" stroke-linecap="round" stroke-linejoin="round"/>
<path d="M19.2559 22.1516V22.1729M27.9225 22.1516V22.1729M36.5892 22.1516V22.1729M45.2559 22.1516V22.1729M19.2559 30.6516V30.6729M19.2559 39.1516V39.1729M19.2559 47.6516V47.6729M40.9225 43.4016L60.4225 49.7766L51.7559 54.0266L47.4225 62.5266L40.9225 43.4016Z" stroke="#44924C" stroke-width="3" stroke-linecap="round" stroke-linejoin="round"/>
</svg>
