<svg width="17" height="17" viewBox="0 0 17 17" fill="none" xmlns="http://www.w3.org/2000/svg">
<path d="M8.16381 8.39383C8.1106 8.39298 8.05988 8.37115 8.02271 8.33307C7.98553 8.295 7.96491 8.24377 7.96534 8.19056C7.96534 8.07852 8.05497 7.98729 8.16381 7.98729" stroke="#19213D" stroke-width="0.96" stroke-linecap="round" stroke-linejoin="round"/>
<path d="M4.71836 8.38743C4.69229 8.38722 4.66653 8.38187 4.64253 8.37171C4.61853 8.36154 4.59677 8.34674 4.57849 8.32817C4.56021 8.30959 4.54576 8.28759 4.53598 8.26343C4.5262 8.23927 4.52128 8.21342 4.52149 8.18736C4.52149 8.07692 4.60952 7.98729 4.71836 7.98729" stroke="#19213D" stroke-width="0.96" stroke-linecap="round" stroke-linejoin="round"/>
<path d="M11.6119 8.38743C11.5858 8.38722 11.5601 8.38187 11.5361 8.37171C11.5121 8.36154 11.4903 8.34674 11.472 8.32817C11.4538 8.30959 11.4393 8.28759 11.4295 8.26343C11.4198 8.23927 11.4148 8.21342 11.415 8.18736C11.415 8.07692 11.5031 7.98729 11.6119 7.98729" stroke="#19213D" stroke-width="0.96" stroke-linecap="round" stroke-linejoin="round"/>
<path d="M8.16846 8.39383C8.19494 8.39362 8.22112 8.38819 8.24551 8.37787C8.2699 8.36754 8.29201 8.35251 8.31059 8.33363C8.32917 8.31475 8.34385 8.2924 8.35379 8.26786C8.36373 8.24331 8.36874 8.21704 8.36853 8.19056C8.36874 8.16407 8.36373 8.13781 8.35379 8.11326C8.34385 8.08871 8.32917 8.06636 8.31059 8.04749C8.29201 8.02861 8.2699 8.01358 8.24551 8.00325C8.22112 7.99292 8.19494 7.9875 8.16846 7.98729" stroke="#19213D" stroke-width="1.3" stroke-linecap="round" stroke-linejoin="round"/>
<path d="M4.71924 8.38743C4.7453 8.38722 4.77107 8.38187 4.79507 8.37171C4.81907 8.36154 4.84083 8.34674 4.85911 8.32817C4.87739 8.30959 4.89183 8.28759 4.90161 8.26343C4.91139 8.23927 4.91632 8.21342 4.91611 8.18736C4.91632 8.16129 4.91139 8.13544 4.90161 8.11128C4.89183 8.08712 4.87739 8.06513 4.85911 8.04655C4.84083 8.02797 4.81907 8.01318 4.79507 8.00301C4.77107 7.99284 4.7453 7.9875 4.71924 7.98729" stroke="#19213D" stroke-width="1.3" stroke-linecap="round" stroke-linejoin="round"/>
<path d="M11.6123 8.38743C11.6384 8.38722 11.6641 8.38187 11.6881 8.37171C11.7121 8.36154 11.7339 8.34674 11.7522 8.32817C11.7705 8.30959 11.7849 8.28759 11.7947 8.26343C11.8045 8.23927 11.8094 8.21342 11.8092 8.18736C11.8094 8.16129 11.8045 8.13544 11.7947 8.11128C11.7849 8.08712 11.7705 8.06513 11.7522 8.04655C11.7339 8.02797 11.7121 8.01318 11.6881 8.00301C11.6641 7.99284 11.6384 7.9875 11.6123 7.98729" stroke="#19213D" stroke-width="1.3" stroke-linecap="round" stroke-linejoin="round"/>
<path d="M8.16561 0.988159C6.85584 0.988601 5.57091 1.34563 4.44866 2.02096C3.32642 2.69628 2.40921 3.6644 1.79545 4.82146C1.1837 5.97822 0.899857 7.28021 0.974614 8.58663C1.04937 9.89304 1.47988 11.1542 2.21959 12.2336L0.963164 15.3931L4.32431 14.2599C5.26893 14.8524 6.33808 15.2178 7.44776 15.3274C8.55744 15.437 9.67742 15.2878 10.7197 14.8915C11.762 14.4952 12.6982 13.8627 13.4547 13.0435C14.2113 12.2243 14.7676 11.2409 15.08 10.1705C15.3898 9.10031 15.4461 7.97269 15.2444 6.877C15.0427 5.7813 14.5885 4.74764 13.918 3.85793C13.2471 2.96659 12.3782 2.24337 11.3799 1.74534C10.3816 1.24731 9.28123 0.988095 8.16561 0.988159Z" stroke="#19213D" stroke-width="1.4" stroke-linecap="round" stroke-linejoin="round"/>
</svg>
