<svg width="31" height="31" viewBox="0 0 31 31" fill="none" xmlns="http://www.w3.org/2000/svg">
<g clip-path="url(#clip0_2_20788)">
<rect x="0.663086" y="0.364624" width="30" height="30" rx="15" fill="#F6FAFF"/>
<rect x="0.663086" y="0.364624" width="30" height="30" fill="#A5B9FF"/>
<path d="M17.6347 12.9271C17.5816 12.4309 17.3582 12.0445 16.9642 11.768C16.5741 11.4915 16.0665 11.3533 15.4415 11.3533C15.0021 11.3533 14.6252 11.4195 14.3108 11.5521C13.9964 11.6847 13.7559 11.8646 13.5892 12.0919C13.4226 12.3192 13.3373 12.5786 13.3335 12.8703C13.3335 13.1127 13.3885 13.323 13.4983 13.501C13.6119 13.679 13.7654 13.8305 13.9585 13.9555C14.1517 14.0767 14.3657 14.179 14.6006 14.2624C14.8354 14.3457 15.0722 14.4158 15.3108 14.4726L16.4017 14.7453C16.8411 14.8476 17.2635 14.9858 17.6688 15.1601C18.0779 15.3343 18.4434 15.554 18.7654 15.8192C19.0911 16.0843 19.3487 16.4044 19.5381 16.7794C19.7275 17.1544 19.8222 17.5938 19.8222 18.0976C19.8222 18.7794 19.6479 19.3798 19.2994 19.8987C18.951 20.4139 18.4472 20.8173 17.7881 21.1089C17.1328 21.3968 16.3392 21.5408 15.4074 21.5408C14.5021 21.5408 13.7161 21.4006 13.0494 21.1203C12.3866 20.84 11.8676 20.4309 11.4926 19.893C11.1214 19.3552 10.9207 18.6999 10.8904 17.9271H12.9642C12.9945 18.3324 13.1195 18.6695 13.3392 18.9385C13.5589 19.2074 13.8449 19.4082 14.1972 19.5408C14.5532 19.6733 14.951 19.7396 15.3904 19.7396C15.8487 19.7396 16.2502 19.6714 16.5949 19.5351C16.9434 19.3949 17.2161 19.2017 17.4131 18.9555C17.6101 18.7055 17.7104 18.4139 17.7142 18.0805C17.7104 17.7775 17.6214 17.5275 17.4472 17.3305C17.2729 17.1298 17.0286 16.9631 16.7142 16.8305C16.4036 16.6942 16.04 16.573 15.6233 16.4669L14.2994 16.126C13.3411 15.8798 12.5835 15.5067 12.0267 15.0067C11.4737 14.5029 11.1972 13.8343 11.1972 13.001C11.1972 12.3154 11.3828 11.715 11.754 11.1999C12.129 10.6847 12.6385 10.2851 13.2824 10.001C13.9263 9.71311 14.6555 9.56917 15.4699 9.56917C16.2957 9.56917 17.0191 9.71311 17.6404 10.001C18.2654 10.2851 18.7559 10.6809 19.1119 11.1885C19.468 11.6923 19.6517 12.2718 19.6631 12.9271H17.6347Z" fill="white"/>
</g>
<defs>
<clipPath id="clip0_2_20788">
<rect x="0.663086" y="0.364624" width="30" height="30" rx="15" fill="white"/>
</clipPath>
</defs>
</svg>
