<svg width="31" height="31" viewBox="0 0 31 31" fill="none" xmlns="http://www.w3.org/2000/svg">
<rect x="0.25" y="0.713867" width="30" height="30" rx="5" fill="#44924C"/>
<path d="M20.8428 10.5142C20.716 10.3968 20.5569 10.3143 20.3831 10.2757C20.2092 10.2371 20.0274 10.2439 19.8574 10.2954L10.0506 13.3454C9.86876 13.3992 9.70805 13.502 9.58878 13.6408C9.46952 13.7797 9.39707 13.9484 9.38057 14.1256C9.36407 14.3028 9.40427 14.4806 9.49609 14.6366C9.58792 14.7925 9.72724 14.9196 9.89647 15.0017L13.9653 16.8767L15.9763 20.6829C16.0571 20.8319 16.1808 20.957 16.3335 21.0442C16.4862 21.1314 16.6619 21.1773 16.841 21.1767H16.908C17.0998 21.1635 17.2829 21.0969 17.4335 20.9854C17.5841 20.874 17.6953 20.7228 17.7526 20.5517L21.0707 11.4329C21.1299 11.2754 21.14 11.1054 21.0996 10.9428C21.0593 10.7801 20.9702 10.6315 20.8428 10.5142ZM10.4662 14.2079L19.0262 11.5454L14.2737 15.9767L10.4662 14.2079ZM16.8879 20.1892L14.9842 16.6392L19.7368 12.2079L16.8879 20.1892Z" fill="white"/>
</svg>
