<svg width="21" height="21" viewBox="0 0 21 21" fill="none" xmlns="http://www.w3.org/2000/svg">
<path d="M6.06169 10.2887L10.0617 13.6221L15.395 6.95541M10.7284 19.6221C9.50268 19.6221 8.28901 19.3807 7.15664 18.9116C6.02427 18.4426 4.99537 17.7551 4.12869 16.8884C3.26201 16.0217 2.57452 14.9928 2.10548 13.8605C1.63643 12.7281 1.39502 11.5144 1.39502 10.2887C1.39502 9.06308 1.63643 7.84941 2.10548 6.71704C2.57452 5.58466 3.26201 4.55576 4.12869 3.68908C4.99537 2.8224 6.02427 2.13492 7.15664 1.66587C8.28901 1.19683 9.50268 0.955414 10.7284 0.955414C13.2037 0.955414 15.5777 1.93874 17.328 3.68908C19.0784 5.43942 20.0617 7.81339 20.0617 10.2887C20.0617 12.7641 19.0784 15.1381 17.328 16.8884C15.5777 18.6387 13.2037 19.6221 10.7284 19.6221Z" stroke="white" stroke-width="1.06667"/>
</svg>
